<svg width="357" height="318" viewBox="0 0 357 318" fill="none" xmlns="http://www.w3.org/2000/svg">
<g clip-path="url(#clip0_205_13)">
<path d="M373.901 307.494H340.779V307.744H373.901V307.494Z" fill="#EBEBEB"/>
<path d="M255.22 310.208H246.527V310.458H255.22V310.208Z" fill="#EBEBEB"/>
<path d="M339.778 298.208H320.586V298.458H339.778V298.208Z" fill="#EBEBEB"/>
<path d="M19.652 299.888H-23.541V300.138H19.652V299.888Z" fill="#EBEBEB"/>
<path d="M34.889 299.888H28.556V300.138H34.889V299.888Z" fill="#EBEBEB"/>
<path d="M149.147 304.111H55.4709V304.361H149.147V304.111Z" fill="#EBEBEB"/>
<path d="M162.401 246.8H-30.698C-33.845 246.8 -36.406 244.239 -36.406 241.092V-30.34C-36.406 -33.487 -33.845 -36.048 -30.698 -36.048H162.401C165.547 -36.048 168.108 -33.487 168.108 -30.34V241.092C168.108 244.239 165.547 246.8 162.401 246.8ZM-30.698 -35.797C-33.708 -35.797 -36.156 -33.349 -36.156 -30.339V241.093C-36.156 244.103 -33.708 246.551 -30.698 246.551H162.401C165.41 246.551 167.858 244.103 167.858 241.093V-30.34C167.858 -33.349 165.41 -35.798 162.401 -35.798L-30.698 -35.797Z" fill="#EBEBEB"/>
<path d="M378.698 246.8H185.599C182.453 246.8 179.892 244.239 179.892 241.092V-30.34C179.892 -33.487 182.453 -36.048 185.599 -36.048H378.698C381.846 -36.048 384.406 -33.487 384.406 -30.34V241.092C384.406 244.239 381.845 246.8 378.698 246.8ZM185.599 -35.797C182.59 -35.797 180.142 -33.349 180.142 -30.339V241.093C180.142 244.103 182.59 246.551 185.599 246.551H378.698C381.708 246.551 384.156 244.103 384.156 241.093V-30.34C384.156 -33.349 381.708 -35.798 378.698 -35.798L185.599 -35.797Z" fill="#EBEBEB"/>
<path d="M424 291.398H-76V291.648H424V291.398Z" fill="#EBEBEB"/>
<path d="M328.399 58.094H301.519C292.99 58.094 286.076 51.18 286.076 42.651V15.771C286.076 7.243 292.99 0.328999 301.519 0.328999H328.399C336.928 0.328999 343.842 7.243 343.842 15.771V42.651C343.841 51.18 336.927 58.094 328.399 58.094Z" fill="#F0F0F0"/>
<path d="M322.151 21.047C322.151 25.966 319.648 29.953 314.729 29.953C309.81 29.953 307.307 25.966 307.307 21.047C307.307 16.128 309.81 12.141 314.729 12.141C319.648 12.141 322.151 16.129 322.151 21.047Z" fill="#FAFAFA"/>
<path d="M314.729 46.281H328.459V38.117C328.459 33.608 322.312 29.953 314.729 29.953C307.146 29.953 300.999 33.608 300.999 38.117V46.281H314.729Z" fill="#FAFAFA"/>
<path d="M75.489 60.036H56.718C50.762 60.036 45.934 55.208 45.934 49.252V30.48C45.934 24.524 50.762 19.696 56.718 19.696H75.489C81.445 19.696 86.273 24.524 86.273 30.48V49.252C86.273 55.208 81.445 60.036 75.489 60.036Z" fill="#E6E6E6"/>
<path d="M65.279 42.046C65.757 41.355 66.454 40.592 67.369 39.757C68.04 39.147 68.533 38.633 68.849 38.216C69.164 37.799 69.322 37.326 69.322 36.797C69.322 36.044 69.021 35.449 68.421 35.012C67.821 34.575 67.022 34.356 66.026 34.356C65.069 34.356 64.22 34.554 63.477 34.951C62.734 35.347 62.109 35.902 61.6 36.614L57.908 34.448C58.762 33.146 59.917 32.139 61.371 31.427C62.825 30.715 64.549 30.359 66.544 30.359C68.883 30.359 70.76 30.858 72.175 31.854C73.589 32.851 74.296 34.234 74.296 36.004C74.296 36.838 74.159 37.571 73.884 38.202C73.609 38.832 73.274 39.367 72.877 39.804C72.481 40.241 71.967 40.745 71.336 41.314C70.583 41.986 70.034 42.55 69.688 43.008C69.342 43.465 69.169 44.02 69.169 44.671H64.561C64.562 43.613 64.801 42.738 65.279 42.046ZM64.791 51.522C64.231 50.983 63.951 50.327 63.951 49.553C63.951 48.78 64.2259 48.134 64.7749 47.615C65.3239 47.096 66.027 46.837 66.88 46.837C67.735 46.837 68.4369 47.096 68.9859 47.615C69.5349 48.134 69.809 48.78 69.809 49.553C69.809 50.326 69.529 50.983 68.97 51.522C68.41 52.061 67.714 52.331 66.879 52.331C66.044 52.331 65.35 52.061 64.791 51.522Z" fill="#FAFAFA"/>
<path d="M340.163 189.009H325.637C321.028 189.009 317.292 185.273 317.292 180.664V166.138C317.292 161.529 321.028 157.793 325.637 157.793H340.163C344.772 157.793 348.508 161.529 348.508 166.138V180.664C348.508 185.273 344.772 189.009 340.163 189.009Z" fill="#EBEBEB"/>
<path d="M332.263 175.089C332.633 174.554 333.172 173.964 333.88 173.318C334.399 172.846 334.781 172.448 335.026 172.125C335.27 171.803 335.392 171.437 335.392 171.027C335.392 170.444 335.159 169.984 334.695 169.645C334.231 169.307 333.613 169.138 332.842 169.138C332.101 169.138 331.444 169.291 330.87 169.598C330.296 169.905 329.811 170.334 329.418 170.885L326.561 169.209C327.222 168.202 328.116 167.422 329.241 166.871C330.367 166.32 331.701 166.044 333.244 166.044C335.054 166.044 336.507 166.43 337.601 167.201C338.695 167.972 339.242 169.043 339.242 170.412C339.242 171.058 339.136 171.625 338.923 172.113C338.71 172.601 338.451 173.014 338.143 173.353C337.836 173.691 337.439 174.081 336.951 174.522C336.369 175.042 335.943 175.478 335.676 175.833C335.408 176.187 335.274 176.616 335.274 177.12H331.709C331.708 176.301 331.892 175.624 332.263 175.089ZM331.885 182.421C331.452 182.004 331.235 181.496 331.235 180.897C331.235 180.299 331.448 179.799 331.873 179.398C332.298 178.996 332.842 178.796 333.502 178.796C334.163 178.796 334.707 178.997 335.132 179.398C335.557 179.8 335.769 180.299 335.769 180.897C335.769 181.496 335.552 182.004 335.12 182.421C334.687 182.838 334.148 183.047 333.502 183.047C332.856 183.047 332.317 182.838 331.885 182.421Z" fill="#FAFAFA"/>
<path d="M41.108 120.535H22.337C16.381 120.535 11.553 115.707 11.553 109.751V90.98C11.553 85.024 16.381 80.196 22.337 80.196H41.108C47.064 80.196 51.892 85.024 51.892 90.98V109.751C51.892 115.707 47.064 120.535 41.108 120.535Z" fill="#EBEBEB"/>
<path d="M31.722 88.963C26.684 88.963 22.6 93.047 22.6 98.085C22.6 103.123 26.684 115.207 31.722 115.207C36.76 115.207 40.844 103.123 40.844 98.085C40.844 93.047 36.76 88.963 31.722 88.963ZM31.722 100.835C30.203 100.835 28.972 99.604 28.972 98.085C28.972 96.566 30.203 95.335 31.722 95.335C33.241 95.335 34.472 96.566 34.472 98.085C34.472 99.604 33.241 100.835 31.722 100.835Z" fill="#FAFAFA"/>
<path d="M35.745 155.443C35.889 154.531 35.965 153.597 35.965 152.645C35.965 151.693 35.889 150.759 35.745 149.848L32.94 149.484C32.72 148.448 32.389 147.455 31.969 146.51L34.026 144.565C33.17 142.885 32.059 141.357 30.738 140.037L28.242 141.398C27.468 140.703 26.626 140.086 25.721 139.56L26.243 136.772C24.6 135.932 22.812 135.336 20.923 135.04L19.711 137.593C19.196 137.54 18.674 137.512 18.145 137.512C17.616 137.512 17.093 137.54 16.578 137.593L15.366 135.04C13.477 135.336 11.689 135.931 10.046 136.771L10.568 139.559C9.66298 140.084 8.82097 140.701 8.04697 141.396L5.55098 140.035C4.22998 141.355 3.11998 142.883 2.26298 144.562L4.31998 146.507C3.89998 147.452 3.56898 148.446 3.34898 149.481L0.543976 149.845C0.399976 150.757 0.323975 151.691 0.323975 152.642C0.323975 153.594 0.399976 154.528 0.543976 155.439L3.34898 155.803C3.56898 156.839 3.89998 157.832 4.31998 158.777L2.26298 160.722C3.11898 162.402 4.22998 163.93 5.55098 165.249L8.04697 163.888C8.82097 164.583 9.66298 165.2 10.568 165.726L10.046 168.514C11.689 169.354 13.477 169.95 15.366 170.245L16.578 167.692C17.093 167.745 17.615 167.773 18.145 167.773C18.674 167.773 19.196 167.745 19.711 167.692L20.923 170.245C22.812 169.949 24.601 169.354 26.243 168.513L25.721 165.725C26.626 165.2 27.468 164.583 28.242 163.887L30.738 165.248C32.059 163.928 33.17 162.4 34.026 160.72L31.969 158.775C32.389 157.83 32.72 156.837 32.94 155.801L35.745 155.443ZM18.145 158.868C14.708 158.868 11.922 156.082 11.922 152.645C11.922 149.208 14.708 146.422 18.145 146.422C21.582 146.422 24.368 149.208 24.368 152.645C24.368 156.082 21.582 158.868 18.145 158.868Z" fill="#EBEBEB"/>
<path d="M44.765 175.555C44.837 175.099 44.875 174.632 44.875 174.156C44.875 173.68 44.837 173.213 44.765 172.757L43.363 172.575C43.253 172.057 43.088 171.561 42.877 171.088L43.906 170.116C43.478 169.276 42.923 168.512 42.262 167.852L41.014 168.533C40.627 168.185 40.206 167.877 39.754 167.614L40.015 166.22C39.193 165.8 38.299 165.502 37.355 165.354L36.749 166.631C36.492 166.605 36.23 166.59 35.966 166.59C35.701 166.59 35.44 166.604 35.183 166.631L34.577 165.354C33.633 165.502 32.738 165.8 31.917 166.22L32.178 167.614C31.725 167.877 31.304 168.185 30.917 168.533L29.669 167.852C29.009 168.512 28.453 169.276 28.025 170.116L29.054 171.089C28.844 171.562 28.679 172.058 28.568 172.576L27.165 172.758C27.093 173.214 27.055 173.681 27.055 174.157C27.055 174.633 27.093 175.1 27.165 175.556L28.568 175.738C28.678 176.256 28.843 176.752 29.054 177.225L28.025 178.198C28.453 179.038 29.008 179.802 29.669 180.462L30.917 179.781C31.304 180.129 31.725 180.437 32.178 180.7L31.917 182.094C32.738 182.514 33.633 182.812 34.577 182.96L35.183 181.683C35.441 181.71 35.702 181.724 35.966 181.724C36.23 181.724 36.492 181.71 36.749 181.683L37.355 182.96C38.3 182.812 39.194 182.514 40.015 182.094L39.754 180.7C40.207 180.437 40.628 180.129 41.014 179.781L42.262 180.462C42.922 179.802 43.478 179.038 43.906 178.198L42.877 177.225C43.087 176.752 43.252 176.256 43.363 175.738L44.765 175.555ZM35.965 177.268C34.247 177.268 32.854 175.875 32.854 174.157C32.854 172.439 34.247 171.046 35.965 171.046C37.683 171.046 39.076 172.439 39.076 174.157C39.077 175.875 37.684 177.268 35.965 177.268Z" fill="#E0E0E0"/>
<path d="M353.742 155.378C354.115 155.107 354.472 154.803 354.809 154.467C355.146 154.131 355.449 153.773 355.72 153.4L354.857 152.28C355.145 151.836 355.38 151.368 355.565 150.885L356.98 150.925C357.271 150.028 357.419 149.095 357.418 148.162L356.054 147.761C356.026 147.242 355.947 146.726 355.812 146.22L356.982 145.419C356.698 144.541 356.276 143.698 355.713 142.926L354.382 143.4C354.219 143.199 354.044 143.005 353.857 142.817C353.67 142.63 353.475 142.455 353.274 142.292L353.748 140.961C352.976 140.398 352.133 139.976 351.255 139.692L350.454 140.862C349.948 140.728 349.432 140.648 348.913 140.62L348.512 139.256C347.578 139.255 346.645 139.403 345.749 139.694L345.789 141.109C345.306 141.295 344.838 141.529 344.394 141.817L343.274 140.954C342.901 141.225 342.544 141.529 342.207 141.865C341.87 142.202 341.567 142.559 341.296 142.932L342.159 144.052C341.871 144.496 341.636 144.964 341.451 145.447L340.036 145.407C339.745 146.304 339.597 147.236 339.598 148.17L340.962 148.571C340.99 149.09 341.069 149.606 341.204 150.112L340.034 150.913C340.318 151.791 340.74 152.634 341.303 153.406L342.634 152.932C342.797 153.133 342.972 153.328 343.159 153.515C343.346 153.702 343.541 153.877 343.742 154.04L343.268 155.371C344.041 155.934 344.883 156.356 345.761 156.64L346.562 155.47C347.068 155.604 347.584 155.684 348.103 155.712L348.504 157.076C349.438 157.076 350.37 156.929 351.267 156.638L351.227 155.223C351.71 155.037 352.178 154.803 352.622 154.515L353.742 155.378ZM346.308 150.367C345.093 149.152 345.093 147.182 346.308 145.967C347.523 144.752 349.493 144.752 350.708 145.967C351.923 147.182 351.923 149.152 350.708 150.367C349.493 151.582 347.523 151.582 346.308 150.367Z" fill="#F0F0F0"/>
<path d="M174 332.714C281.082 332.714 367.889 327.645 367.889 321.391C367.889 315.137 281.082 310.068 174 310.068C66.9181 310.068 -19.889 315.137 -19.889 321.391C-19.889 327.645 66.9181 332.714 174 332.714Z" fill="#F5F5F5"/>
<path d="M209.555 22.759V7.176L217.219 6.099V21.682L209.555 22.759Z" fill="#263238"/>
<path d="M184.087 31.435L178.35 22.304L183.236 18.796L188.974 27.927L184.087 31.435Z" fill="#263238"/>
<path d="M237.8 21.065L243.537 10.321L248.424 12.455L242.687 23.199L237.8 21.065Z" fill="#263238"/>
<g opacity="0.5">
<path d="M209.555 22.759V7.176L217.219 6.099V21.682L209.555 22.759Z" fill="white"/>
<path d="M184.087 31.435L178.35 22.304L183.236 18.796L188.974 27.927L184.087 31.435Z" fill="white"/>
<path d="M237.8 21.065L243.537 10.321L248.424 12.455L242.687 23.199L237.8 21.065Z" fill="white"/>
</g>
<path d="M218.307 8.609L208.467 9.99199C206.881 10.215 205.595 9.11 205.595 7.524C205.595 5.938 206.881 4.472 208.467 4.249L218.307 2.86599C219.893 2.64299 221.179 3.748 221.179 5.334C221.178 6.92 219.893 8.386 218.307 8.609Z" fill="#263238"/>
<path d="M184.832 18.554L177.537 23.791C176.807 24.315 175.874 24.196 175.453 23.526C175.032 22.856 175.282 21.887 176.011 21.364L183.306 16.127C184.036 15.603 184.968 15.722 185.39 16.393C185.812 17.062 185.562 18.03 184.832 18.554Z" fill="#263238"/>
<path d="M249.237 13.714L241.942 10.527C241.212 10.208 240.962 9.311 241.384 8.522C241.805 7.733 242.738 7.352 243.468 7.671L250.763 10.858C251.493 11.177 251.742 12.074 251.321 12.863C250.9 13.652 249.967 14.033 249.237 13.714Z" fill="#263238"/>
<path opacity="0.7" d="M218.307 8.609L208.467 9.99199C206.881 10.215 205.595 9.11 205.595 7.524C205.595 5.938 206.881 4.472 208.467 4.249L218.307 2.86599C219.893 2.64299 221.179 3.748 221.179 5.334C221.178 6.92 219.893 8.386 218.307 8.609Z" fill="white"/>
<path opacity="0.7" d="M184.832 18.554L177.537 23.791C176.807 24.315 175.874 24.196 175.453 23.526C175.032 22.856 175.282 21.887 176.011 21.364L183.306 16.127C184.036 15.603 184.968 15.722 185.39 16.393C185.812 17.062 185.562 18.03 184.832 18.554Z" fill="white"/>
<path opacity="0.7" d="M249.237 13.714L241.942 10.527C241.212 10.208 240.962 9.311 241.384 8.522C241.805 7.733 242.738 7.352 243.468 7.671L250.763 10.858C251.493 11.177 251.742 12.074 251.321 12.863C250.9 13.652 249.967 14.033 249.237 13.714Z" fill="white"/>
<path d="M213.387 120.302C186.755 124.045 165.166 105.49 165.166 78.858C165.166 52.226 186.755 27.603 213.387 23.86C240.019 20.117 261.608 38.672 261.608 65.304L268.187 64.379C268.187 34.114 243.652 13.027 213.387 17.281C183.122 21.534 158.587 49.517 158.587 79.783C158.587 110.049 183.122 131.135 213.387 126.881V120.302Z" fill="#407BFF"/>
<path d="M194.225 106.232L190.626 112.973L192.037 113.727L195.636 106.986L194.225 106.232Z" fill="#263238"/>
<path d="M234.707 30.4266L231.107 37.1676L232.519 37.9212L236.118 31.1802L234.707 30.4266Z" fill="#263238"/>
<path d="M175.539 54.6773L174.899 56.1436L181.134 58.8672L181.774 57.401L175.539 54.6773Z" fill="#263238"/>
<path d="M192.012 36.5831L190.657 37.4343L194.257 43.1631L195.611 42.3119L192.012 36.5831Z" fill="#263238"/>
<path d="M180.986 94.3787L174.749 98.8538L175.682 100.154L181.918 95.6787L180.986 94.3787Z" fill="#263238"/>
<path d="M251.107 44.0226L244.87 48.4977L245.803 49.7977L252.039 45.3226L251.107 44.0226Z" fill="#263238"/>
<path d="M178.691 75.346L169.091 76.6954L169.536 79.8644L179.136 78.515L178.691 75.346Z" fill="#263238"/>
<path d="M214.987 27.998H211.787V37.598H214.987V27.998Z" fill="#263238"/>
<path d="M214.987 106.565H211.787V116.165H214.987V106.565Z" fill="#263238"/>
<path d="M200.953 61.677C200.175 62.565 200.175 63.827 200.953 64.496L211.685 73.72L214.504 70.505L203.772 61.281C202.994 60.612 201.732 60.79 200.953 61.677Z" fill="#407BFF"/>
<path opacity="0.4" d="M200.953 61.677C200.175 62.565 200.175 63.827 200.953 64.496L211.685 73.72L214.504 70.505L203.772 61.281C202.994 60.612 201.732 60.79 200.953 61.677Z" fill="white"/>
<path d="M272.876 62.921L264.87 73.651L256.865 65.171L272.876 62.921Z" fill="#407BFF"/>
<path d="M234.29 111.26L246.787 109.504L245.682 115.271L223.153 118.437L224.046 113.848L237.606 101.315C239.249 99.752 240.39 98.473 241.028 97.476C241.666 96.479 241.985 95.485 241.985 94.494C241.985 93.502 241.609 92.762 240.859 92.272C240.107 91.783 239.024 91.638 237.607 91.837C236.417 92.004 235.269 92.435 234.164 93.129C233.059 93.823 232.095 94.724 231.274 95.83L226.64 93.123C227.858 91.281 229.53 89.72 231.657 88.444C233.782 87.168 236.105 86.352 238.628 85.998C240.696 85.707 242.517 85.792 244.09 86.25C245.662 86.71 246.88 87.488 247.745 88.584C248.61 89.682 249.042 90.995 249.042 92.526C249.042 94.368 248.532 96.168 247.511 97.926C246.491 99.685 244.72 101.719 242.198 104.029L234.29 111.26Z" fill="#263238"/>
<path d="M276.585 104.679L271.697 105.366L270.464 111.788L263.748 112.732L265.023 106.304L248.998 108.556L249.891 103.797L267.404 82.463L274.927 81.406L258.604 101.596L266.425 100.497L267.53 94.773L273.949 93.871L272.844 99.595L277.732 98.908L276.585 104.679Z" fill="#263238"/>
<path d="M296.222 72.376L302.428 71.504L280.58 114.616L274.417 115.482L296.222 72.376Z" fill="#263238"/>
<path d="M324.574 74.428L323.681 79.017L307.783 106.543L300.131 107.618L315.392 81.329L305.742 82.685L304.765 87.668L298.644 88.528L300.727 77.778L324.574 74.428Z" fill="#263238"/>
<path d="M226.575 148.043C225.45 147.876 224.549 147.589 223.869 147.182L225.333 144.204C226.043 144.622 226.842 144.909 227.729 145.065C228.616 145.222 229.525 145.234 230.456 145.103C231.447 144.964 232.231 144.691 232.808 144.284C233.384 143.878 233.673 143.395 233.673 142.832C233.673 142.373 233.444 142.055 232.985 141.875C232.527 141.696 231.795 141.536 230.789 141.397C229.784 141.242 228.963 141.073 228.327 140.889C227.692 140.705 227.14 140.372 226.675 139.89C226.209 139.409 225.977 138.717 225.977 137.814C225.977 136.765 226.268 135.799 226.853 134.919C227.437 134.039 228.264 133.309 229.336 132.73C230.408 132.151 231.654 131.761 233.073 131.561C234.123 131.413 235.113 131.389 236.046 131.487C236.977 131.585 237.776 131.801 238.441 132.137L237.088 135.078C236.511 134.76 235.861 134.552 235.136 134.454C234.411 134.356 233.657 134.362 232.874 134.472C231.854 134.615 231.048 134.905 230.456 135.344C229.865 135.782 229.569 136.282 229.569 136.843C229.569 137.183 229.694 137.451 229.946 137.644C230.198 137.839 230.515 137.978 230.9 138.065C231.284 138.152 231.824 138.242 232.519 138.336C233.51 138.463 234.323 138.619 234.958 138.803C235.594 138.987 236.137 139.31 236.589 139.771C237.039 140.233 237.265 140.892 237.265 141.75C237.265 142.814 236.969 143.784 236.378 144.658C235.787 145.532 234.951 146.264 233.872 146.851C232.793 147.438 231.536 147.834 230.102 148.035C228.873 148.208 227.698 148.21 226.575 148.043Z" fill="#263238"/>
<path d="M244.937 133.044L244.272 136.508L251.48 135.495L250.926 138.368L243.696 139.384L242.986 143.076L251.458 141.885L250.86 144.852L238.84 146.541L241.944 130.581L253.676 128.932L253.077 131.899L244.937 133.044Z" fill="#263238"/>
<path d="M268.046 135.451C267.262 136.596 266.175 137.481 264.786 138.105L267.491 142.515L263.699 143.048L261.26 139.044L258.199 139.474L257.334 143.942L253.719 144.45L256.823 128.49L263.144 127.602C265.065 127.332 266.559 127.543 267.624 128.237C268.689 128.93 269.22 130.038 269.22 131.561C269.221 133.009 268.829 134.306 268.046 135.451ZM264.597 134.893C265.255 134.255 265.584 133.424 265.584 132.403C265.584 131.664 265.332 131.145 264.83 130.846C264.327 130.548 263.611 130.463 262.679 130.594L259.841 130.993L258.754 136.535L261.815 136.105C263.011 135.937 263.939 135.533 264.597 134.893Z" fill="#263238"/>
<path d="M288.05 124.101L278.225 141.006L274.698 141.502L271.083 126.486L274.787 125.965L277.293 136.679L284.323 124.625L288.05 124.101Z" fill="#263238"/>
<path d="M289.335 123.921L292.95 123.413L289.846 139.373L286.231 139.881L289.335 123.921Z" fill="#263238"/>
<path d="M297.596 137.707C296.436 137.309 295.545 136.643 294.924 135.709C294.302 134.777 293.992 133.644 293.992 132.314C293.992 130.554 294.395 128.912 295.201 127.386C296.007 125.861 297.141 124.589 298.605 123.57C300.069 122.551 301.747 121.908 303.64 121.642C305.03 121.447 306.257 121.511 307.322 121.834C308.386 122.158 309.192 122.725 309.739 123.535L307.145 126.029C306.317 124.933 305.068 124.502 303.397 124.736C302.258 124.896 301.253 125.304 300.38 125.959C299.507 126.614 298.832 127.434 298.351 128.418C297.87 129.402 297.63 130.456 297.63 131.579C297.63 132.776 298.01 133.673 298.772 134.268C299.533 134.863 300.601 135.064 301.977 134.871C303.618 134.64 304.993 133.849 306.102 132.495L308.231 134.369C306.693 136.375 304.505 137.576 301.667 137.975C300.113 138.196 298.757 138.106 297.596 137.707Z" fill="#263238"/>
<path d="M315.859 123.076L315.194 126.54L322.402 125.527L321.848 128.4L314.618 129.416L313.908 133.108L322.38 131.917L321.782 134.884L309.762 136.573L312.866 120.613L324.598 118.964L323.999 121.931L315.859 123.076Z" fill="#263238"/>
<path d="M231.658 50.941C230.88 50.272 229.618 50.449 228.839 51.337L214.296 67.924C212.861 67.699 211.248 68.259 210.114 69.552C208.468 71.429 208.468 74.098 210.114 75.512C211.76 76.927 214.429 76.552 216.075 74.674C217.208 73.382 217.542 71.721 217.115 70.346L231.658 53.759C232.436 52.872 232.436 51.609 231.658 50.941Z" fill="#407BFF"/>
<path d="M120.471 53.471C109.783 53.471 101.119 59.777 101.119 67.557C101.119 73.213 105.71 78.077 112.318 80.318C111.606 83.616 110.376 86.721 108.709 89.538C113.665 88.811 117.873 85.811 120.258 81.634C120.33 81.635 120.4 81.642 120.472 81.642C131.16 81.642 139.824 75.336 139.824 67.556C139.823 59.777 131.158 53.471 120.471 53.471Z" fill="#407BFF"/>
<path opacity="0.7" d="M120.471 53.471C109.783 53.471 101.119 59.777 101.119 67.557C101.119 73.213 105.71 78.077 112.318 80.318C111.606 83.616 110.376 86.721 108.709 89.538C113.665 88.811 117.873 85.811 120.258 81.634C120.33 81.635 120.4 81.642 120.472 81.642C131.16 81.642 139.824 75.336 139.824 67.556C139.823 59.777 131.158 53.471 120.471 53.471Z" fill="white"/>
<path d="M111.935 70.273C113.024 70.273 113.907 69.3901 113.907 68.301C113.907 67.2119 113.024 66.329 111.935 66.329C110.846 66.329 109.963 67.2119 109.963 68.301C109.963 69.3901 110.846 70.273 111.935 70.273Z" fill="#263238"/>
<path d="M122.309 68.301C122.309 69.39 121.426 70.273 120.337 70.273C119.248 70.273 118.365 69.39 118.365 68.301C118.365 67.212 119.248 66.329 120.337 66.329C121.426 66.329 122.309 67.212 122.309 68.301Z" fill="#263238"/>
<path d="M128.739 70.273C129.828 70.273 130.711 69.3901 130.711 68.301C130.711 67.2119 129.828 66.329 128.739 66.329C127.65 66.329 126.767 67.2119 126.767 68.301C126.767 69.3901 127.65 70.273 128.739 70.273Z" fill="#263238"/>
<path d="M91.8651 226.629H85.3V269.804H91.8651V226.629Z" fill="#263238"/>
<path opacity="0.5" d="M91.8651 226.629H85.3V269.804H91.8651V226.629Z" fill="white"/>
<path d="M108.545 302.145L93.161 299.367V268.472C93.161 267.515 92.385 266.739 91.428 266.739H85.737C84.78 266.739 84.004 267.515 84.004 268.472V299.367L68.62 302.145C66.39 302.548 64.769 304.488 64.769 306.754L88.583 304.604L112.397 306.754C112.396 304.489 110.775 302.548 108.545 302.145Z" fill="#263238"/>
<path d="M69.771 311.418C69.771 314.181 67.531 316.421 64.768 316.421C62.005 316.421 59.765 314.181 59.765 311.418C59.765 308.655 62.005 306.415 64.768 306.415C67.532 306.415 69.771 308.655 69.771 311.418Z" fill="#407BFF"/>
<path d="M117.399 311.418C117.399 314.181 115.159 316.421 112.396 316.421C109.633 316.421 107.393 314.181 107.393 311.418C107.393 308.655 109.633 306.415 112.396 306.415C115.159 306.415 117.399 308.655 117.399 311.418Z" fill="#407BFF"/>
<path d="M92.4851 311.418C92.4851 314.181 91.3451 316.421 88.5821 316.421C85.8191 316.421 84.6801 314.181 84.6801 311.418C84.6801 308.655 85.8201 306.415 88.5821 306.415C91.3461 306.415 92.4851 308.655 92.4851 311.418Z" fill="#407BFF"/>
<g opacity="0.5">
<path d="M93.3151 299.395V305.031L95.1721 305.199V299.73L93.3151 299.395Z" fill="black"/>
<path d="M82.04 299.722V305.195L83.897 305.027V299.386L82.04 299.722Z" fill="black"/>
</g>
<path d="M45.687 187.304C43.923 187.304 42.591 188.905 42.913 190.64L49.008 223.509C49.58 226.592 52.269 228.829 55.405 228.829H85.28H121.653H151.528C153.912 228.829 155.844 226.896 155.844 224.513C155.844 221.126 153.098 218.379 149.71 218.379H119.835H94.859C91.869 218.379 89.263 216.34 88.544 213.438L83.633 193.62C82.714 189.91 79.383 187.304 75.561 187.304H45.687Z" fill="#263238"/>
<path d="M58.67 213.438L53.759 193.62C52.84 189.91 49.509 187.304 45.687 187.304C43.923 187.304 42.591 188.905 42.913 190.64L49.008 223.509C49.58 226.592 52.269 228.829 55.405 228.829H121.653C124.037 228.829 125.969 226.897 125.969 224.513C125.969 221.126 123.223 218.379 119.835 218.379H64.984C61.994 218.379 59.389 216.341 58.67 213.438Z" fill="#263238"/>
<path opacity="0.2" d="M58.67 213.438L53.759 193.62C52.84 189.91 49.509 187.304 45.687 187.304C43.923 187.304 42.591 188.905 42.913 190.64L49.008 223.509C49.58 226.592 52.269 228.829 55.405 228.829H121.653C124.037 228.829 125.969 226.897 125.969 224.513C125.969 221.126 123.223 218.379 119.835 218.379H64.984C61.994 218.379 59.389 216.341 58.67 213.438Z" fill="white"/>
<path d="M295.978 269.053C295.978 269.053 296.106 255.695 291.253 257.456C286.401 259.218 295.978 269.053 295.978 269.053Z" fill="#407BFF"/>
<path d="M301.223 256.691C301.223 256.691 307.657 246.007 301.843 244.48C296.029 242.953 301.223 256.691 301.223 256.691Z" fill="#407BFF"/>
<path d="M326.673 249.148C326.673 249.148 340.039 248.458 337.017 243.45C333.995 238.443 326.673 249.148 326.673 249.148Z" fill="#407BFF"/>
<path d="M305.518 252.7C305.518 252.7 319.541 249.545 316.898 257.401C314.255 265.257 305.518 252.7 305.518 252.7Z" fill="#407BFF"/>
<path d="M295.353 281.12C295.353 281.12 289.947 269.014 286.955 273.314C283.962 277.615 295.353 281.12 295.353 281.12Z" fill="#407BFF"/>
<path d="M310.606 250.176C310.606 250.176 324.87 246.436 320.425 241.172C315.981 235.907 310.606 250.176 310.606 250.176Z" fill="#407BFF"/>
<path d="M321.394 248.714C321.394 248.714 332.67 254.253 327.468 257.866C322.267 261.48 321.394 248.714 321.394 248.714Z" fill="#407BFF"/>
<path d="M297.406 263.678C297.406 263.678 305.217 254.278 307.63 261.111C310.042 267.944 297.406 263.678 297.406 263.678Z" fill="#407BFF"/>
<g opacity="0.4">
<path d="M295.353 281.12C295.353 281.12 289.947 269.014 286.955 273.314C283.962 277.615 295.353 281.12 295.353 281.12Z" fill="white"/>
<path d="M310.606 250.176C310.606 250.176 324.87 246.436 320.425 241.172C315.981 235.907 310.606 250.176 310.606 250.176Z" fill="white"/>
<path d="M321.394 248.714C321.394 248.714 332.67 254.253 327.468 257.866C322.267 261.48 321.394 248.714 321.394 248.714Z" fill="white"/>
<path d="M297.406 263.678C297.406 263.678 305.217 254.278 307.63 261.111C310.042 267.944 297.406 263.678 297.406 263.678Z" fill="white"/>
</g>
<path d="M295.275 275.885C295.275 275.885 300.873 263.866 305.382 269.929C309.891 275.991 295.275 275.885 295.275 275.885Z" fill="#407BFF"/>
<path d="M295.362 288.496C293.765 280.889 293.801 272.301 296.074 264.862C300.653 249.877 314.695 246.325 328.904 248.595C330.03 248.775 329.526 250.481 328.408 250.302C320.873 249.098 312.368 248.982 305.844 253.543C301.144 256.829 298.48 262.061 297.199 267.531C295.661 274.097 295.698 281.451 297.086 288.063C297.321 289.18 295.598 289.618 295.362 288.496Z" fill="#407BFF"/>
<g opacity="0.3">
<path d="M295.362 288.496C293.765 280.889 293.801 272.301 296.074 264.862C300.653 249.877 314.695 246.325 328.904 248.595C330.03 248.775 329.526 250.481 328.408 250.302C320.873 249.098 312.368 248.982 305.844 253.543C301.144 256.829 298.48 262.061 297.199 267.531C295.661 274.097 295.698 281.451 297.086 288.063C297.321 289.18 295.598 289.618 295.362 288.496Z" fill="black"/>
</g>
<path d="M284.228 264.981C284.228 264.981 277.277 248.663 272.685 252.924C268.094 257.185 284.228 264.981 284.228 264.981Z" fill="#407BFF"/>
<path d="M283.634 247.643C283.634 247.643 285.286 231.83 277.853 232.507C270.419 233.185 283.634 247.643 283.634 247.643Z" fill="#407BFF"/>
<path d="M308.617 227.36C308.617 227.36 323.475 220.69 317.372 215.912C311.269 211.134 308.617 227.36 308.617 227.36Z" fill="#407BFF"/>
<path d="M286.406 240.911C286.406 240.911 300.703 230.953 301.866 241.67C303.029 252.387 286.406 240.911 286.406 240.911Z" fill="#407BFF"/>
<path d="M289.926 279.944C289.926 279.944 277.337 267.564 276.213 274.105C275.088 280.645 289.926 279.944 289.926 279.944Z" fill="#407BFF"/>
<path d="M290.861 235.619C290.861 235.619 305.122 224.844 297.262 220.374C289.403 215.904 290.861 235.619 290.861 235.619Z" fill="#407BFF"/>
<path d="M302.372 229.133C302.372 229.133 318.158 230.957 314.153 237.626C310.148 244.294 302.372 229.133 302.372 229.133Z" fill="#407BFF"/>
<path d="M282.998 257.814C282.998 257.814 286.902 242.963 293.28 250.229C299.658 257.495 282.998 257.814 282.998 257.814Z" fill="#407BFF"/>
<g opacity="0.4">
<path d="M289.926 279.944C289.926 279.944 277.337 267.564 276.213 274.105C275.088 280.645 289.926 279.944 289.926 279.944Z" fill="white"/>
<path d="M290.861 235.619C290.861 235.619 305.122 224.844 297.262 220.374C289.403 215.904 290.861 235.619 290.861 235.619Z" fill="white"/>
<path d="M302.372 229.133C302.372 229.133 318.158 230.957 314.153 237.626C310.148 244.294 302.372 229.133 302.372 229.133Z" fill="white"/>
<path d="M282.998 257.814C282.998 257.814 286.902 242.963 293.28 250.229C299.658 257.495 282.998 257.814 282.998 257.814Z" fill="white"/>
</g>
<path d="M287.055 273.604C287.055 273.604 287.047 256.53 295.404 261.944C303.761 267.358 287.055 273.604 287.055 273.604Z" fill="#407BFF"/>
<path d="M293.855 288.919C287.995 280.354 283.473 269.885 282.111 259.837C279.366 239.597 293.474 229.148 310.864 225.714C312.243 225.442 312.574 227.739 311.206 228.009C301.984 229.83 292.234 233.399 287.226 241.796C283.618 247.847 283.363 255.378 284.81 262.596C286.547 271.261 290.495 280.197 295.589 287.64C296.449 288.897 294.719 290.183 293.855 288.919Z" fill="#407BFF"/>
<g opacity="0.3">
<path d="M293.855 288.919C287.995 280.354 283.473 269.885 282.111 259.837C279.366 239.597 293.474 229.148 310.864 225.714C312.243 225.442 312.574 227.739 311.206 228.009C301.984 229.83 292.234 233.399 287.226 241.796C283.618 247.847 283.363 255.378 284.81 262.596C286.547 271.261 290.495 280.197 295.589 287.64C296.449 288.897 294.719 290.183 293.855 288.919Z" fill="black"/>
</g>
<path d="M282.566 269.289C282.566 269.289 285.895 258.218 289.451 260.921C293.008 263.624 282.566 269.289 282.566 269.289Z" fill="#407BFF"/>
<path d="M281.411 257.725C281.411 257.725 278.842 247.243 284.038 247.476C289.234 247.709 281.411 257.725 281.411 257.725Z" fill="#407BFF"/>
<path d="M262.32 244.95C262.32 244.95 251.453 240.944 255.238 237.583C259.023 234.222 262.32 244.95 262.32 244.95Z" fill="#407BFF"/>
<path d="M278.888 253.323C278.888 253.323 268.112 247.111 268.276 254.281C268.44 261.453 278.888 253.323 278.888 253.323Z" fill="#407BFF"/>
<path d="M279.981 279.42C279.981 279.42 287.56 270.806 288.927 275.129C290.294 279.452 279.981 279.42 279.981 279.42Z" fill="#407BFF"/>
<path d="M275.333 249.93C275.333 249.93 264.508 243.173 269.534 239.965C274.56 236.757 275.333 249.93 275.333 249.93Z" fill="#407BFF"/>
<path d="M266.794 245.948C266.794 245.948 256.053 247.625 259.422 251.949C262.791 256.272 266.794 245.948 266.794 245.948Z" fill="#407BFF"/>
<path d="M282.769 264.48C282.769 264.48 278.731 254.704 274.981 259.73C271.23 264.756 282.769 264.48 282.769 264.48Z" fill="#407BFF"/>
<g opacity="0.4">
<path d="M279.981 279.42C279.981 279.42 287.56 270.806 288.927 275.129C290.294 279.452 279.981 279.42 279.981 279.42Z" fill="white"/>
<path d="M275.333 249.93C275.333 249.93 264.508 243.173 269.534 239.965C274.56 236.757 275.333 249.93 275.333 249.93Z" fill="white"/>
<path d="M266.794 245.948C266.794 245.948 256.053 247.625 259.422 251.949C262.791 256.272 266.794 245.948 266.794 245.948Z" fill="white"/>
<path d="M282.769 264.48C282.769 264.48 278.731 254.704 274.981 259.73C271.23 264.756 282.769 264.48 282.769 264.48Z" fill="white"/>
</g>
<path d="M281.392 275.114C281.392 275.114 279.856 263.743 274.572 267.594C269.286 271.445 281.392 275.114 281.392 275.114Z" fill="#407BFF"/>
<path d="M278.077 285.513C281.352 279.638 283.53 272.533 283.564 265.802C283.633 252.243 272.943 245.697 260.619 243.92C259.642 243.779 259.62 245.318 260.59 245.458C267.126 246.4 274.183 248.491 278.401 253.936C281.44 257.859 282.296 262.868 281.948 267.717C281.53 273.538 279.61 279.605 276.763 284.711C276.283 285.574 277.594 286.379 278.077 285.513Z" fill="#407BFF"/>
<g opacity="0.3">
<path d="M278.077 285.513C281.352 279.638 283.53 272.533 283.564 265.802C283.633 252.243 272.943 245.697 260.619 243.92C259.642 243.779 259.62 245.318 260.59 245.458C267.126 246.4 274.183 248.491 278.401 253.936C281.44 257.859 282.296 262.868 281.948 267.717C281.53 273.538 279.61 279.605 276.763 284.711C276.283 285.574 277.594 286.379 278.077 285.513Z" fill="black"/>
</g>
<path d="M309.197 282.701L305.328 311.886C304.83 315.641 301.628 318.447 297.84 318.447H273.77C269.982 318.447 266.78 315.641 266.282 311.886L262.413 282.701H309.197Z" fill="#407BFF"/>
<path opacity="0.3" d="M309.197 282.701L305.328 311.886C304.83 315.641 301.628 318.447 297.84 318.447H273.77C269.982 318.447 266.78 315.641 266.282 311.886L262.413 282.701H309.197Z" fill="white"/>
<path d="M99.28 93.246C99.28 93.246 110.222 96.512 105.11 104.596L100.356 97.677L99.28 93.246Z" fill="#263238"/>
<path d="M138.695 134.951L143.464 127.949L148.182 129.451L149.043 131.35L143.163 139.764L138.695 134.951Z" fill="#DBB178"/>
<path d="M145.762 136.777C140.975 144.285 133.442 155.22 130.559 154.574C122.1 152.682 110.473 144.674 104.5 135.874C102.627 133.124 103.177 129.396 105.765 127.305L105.743 127.239C108.481 125.012 112.506 125.426 114.734 128.164C114.841 128.295 114.942 128.431 115.038 128.57C120.329 136.16 127.072 143.365 128.139 143.97C129.427 144.715 132.779 141.542 139.868 132.582L145.762 136.777Z" fill="#407BFF"/>
<path opacity="0.6" d="M145.762 136.777C140.975 144.285 133.442 155.22 130.559 154.574C122.1 152.682 110.473 144.674 104.5 135.874C102.627 133.124 103.177 129.396 105.765 127.305L105.743 127.239C108.481 125.012 112.506 125.426 114.734 128.164C114.841 128.295 114.942 128.431 115.038 128.57C120.329 136.16 127.072 143.365 128.139 143.97C129.427 144.715 132.779 141.542 139.868 132.582L145.762 136.777Z" fill="white"/>
<path d="M145.874 130.729L155.323 132.582L150.925 124.658C150.925 124.658 145.202 124.678 143.464 127.95L145.874 130.729Z" fill="#DBB178"/>
<path opacity="0.2" d="M118.498 149.1C111.65 144.425 110.744 133.441 110.744 133.441L106.863 131.672L105.033 136.612C108.418 141.325 113.356 145.765 118.498 149.1Z" fill="black"/>
<path d="M162.002 129.186L157.961 122.751L150.925 124.657L155.323 132.582L162.002 129.186Z" fill="#DBB178"/>
<path d="M109.518 173.143L76.0011 175.343C76.0011 175.343 75.759 166.356 74.593 158.051C74.229 155.167 73.652 152.314 72.866 149.515C71.997 146.655 70.908 143.443 69.566 139.714C69.401 139.252 69.225 138.79 69.038 138.306C68.598 137.151 68.1471 135.941 67.6411 134.676V134.621C66.6741 132.057 67.969 129.195 70.533 128.229C70.763 128.142 70.9981 128.073 71.2381 128.021C73.3721 127.57 75.5171 127.163 77.6951 126.822L79.576 126.536C84.598 125.787 89.659 125.336 94.734 125.183C97.363 125.183 100.168 125.26 102.566 125.37L104.557 125.469C107.098 125.623 108.858 125.777 108.858 125.777C108.858 125.777 109.958 125.997 110.607 131.893C110.607 132.179 110.673 132.509 110.706 132.85C110.794 134.071 110.86 135.611 110.893 137.459C110.959 145.06 110.552 157.754 109.518 173.143Z" fill="#407BFF"/>
<path opacity="0.6" d="M109.518 173.143L76.0011 175.343C76.0011 175.343 75.759 166.356 74.593 158.051C74.229 155.167 73.652 152.314 72.866 149.515C71.997 146.655 70.908 143.443 69.566 139.714C69.401 139.252 69.225 138.79 69.038 138.306C68.598 137.151 68.1471 135.941 67.6411 134.676V134.621C66.6741 132.057 67.969 129.195 70.533 128.229C70.763 128.142 70.9981 128.073 71.2381 128.021C73.3721 127.57 75.5171 127.163 77.6951 126.822L79.576 126.536C84.598 125.787 89.659 125.336 94.734 125.183C97.363 125.183 100.168 125.26 102.566 125.37L104.557 125.469C107.098 125.623 108.858 125.777 108.858 125.777C108.858 125.777 109.958 125.997 110.607 131.893C110.607 132.179 110.673 132.509 110.706 132.85C110.794 134.071 110.86 135.611 110.893 137.459C110.959 145.06 110.552 157.754 109.518 173.143Z" fill="white"/>
<path d="M80.7469 126.379L89.1109 137.518L95.085 132.385L102.877 136.143L98.662 125.234C97.356 125.202 96.025 125.183 94.735 125.183C90.053 125.324 85.3839 125.731 80.7469 126.379Z" fill="#407BFF"/>
<path opacity="0.9" d="M80.7469 126.379L89.1109 137.518L95.085 132.385L102.877 136.143L98.662 125.234C97.356 125.202 96.025 125.183 94.735 125.183C90.053 125.324 85.3839 125.731 80.7469 126.379Z" fill="white"/>
<path d="M154.739 307.574H147.609L150.863 253.751H164.201L154.739 307.574Z" fill="#DBB178"/>
<path d="M146.819 306.892C146.742 306.21 155.245 305.572 155.245 305.572C155.245 305.572 161.174 310.126 166.366 310.61C171.558 311.094 169.182 314.504 163.55 315.285L149.624 317.232C145.62 317.826 147.644 314.031 146.819 306.892Z" fill="#263238"/>
<path d="M159.524 307.178C158.439 307.115 157.367 306.912 156.334 306.573C156.292 306.562 156.254 306.539 156.224 306.507C156.198 306.44 156.198 306.365 156.224 306.298C156.224 306.21 156.686 304.098 157.775 303.482C158.106 303.282 158.507 303.233 158.875 303.35C159.414 303.515 159.546 303.812 159.557 304.021C159.557 304.45 159.15 304.934 158.578 305.374C159.146 305.214 159.748 305.214 160.316 305.374C160.567 305.466 160.77 305.657 160.877 305.902C161.044 306.217 161.009 306.601 160.789 306.881C160.424 307.145 159.969 307.252 159.524 307.178ZM157.225 306.276C158.512 306.606 160.008 306.826 160.338 306.474C160.415 306.397 160.404 306.254 160.338 306.067C160.288 305.953 160.192 305.865 160.074 305.825C159.101 305.706 158.114 305.862 157.225 306.276ZM158.391 303.779C158.243 303.782 158.099 303.823 157.973 303.9C157.4 304.394 156.996 305.056 156.818 305.792C157.918 305.165 159.018 304.373 159.018 304.032C159.018 303.966 158.897 303.889 158.71 303.823C158.606 303.794 158.499 303.779 158.391 303.779Z" fill="#407BFF"/>
<path opacity="0.2" d="M150.294 263.159L162.482 263.531L164.201 253.751H150.863L150.294 263.159Z" fill="black"/>
<path d="M120.518 308.476L113.692 307.574L124.497 247.976L137.984 251.826L120.518 308.476Z" fill="#DBB178"/>
<path d="M112.796 306.617C112.796 305.924 121.321 306.617 121.321 306.617C121.321 306.617 126.491 312.007 131.562 313.217C136.633 314.427 133.762 317.496 128.075 317.419L114.006 317.254C109.925 317.21 112.532 313.8 112.796 306.617Z" fill="#263238"/>
<path d="M125.798 308.839C124.554 308.686 123.348 308.313 122.234 307.739L122.157 307.684C122.153 307.658 122.153 307.633 122.157 307.607C122.13 307.544 122.13 307.472 122.157 307.409C122.157 307.332 122.938 305.33 124.115 304.857C124.465 304.703 124.865 304.703 125.215 304.857C125.721 305.11 125.809 305.407 125.787 305.616C125.787 306.045 125.248 306.463 124.621 306.804C125.206 306.731 125.801 306.822 126.337 307.068C126.572 307.193 126.74 307.414 126.799 307.673C126.929 308.005 126.837 308.384 126.568 308.619C126.345 308.779 126.072 308.857 125.798 308.839ZM123.125 307.563C124.346 308.08 125.798 308.531 126.172 308.223C126.249 308.157 126.271 308.025 126.172 307.816C126.14 307.698 126.06 307.598 125.952 307.541C125.025 307.297 124.049 307.304 123.125 307.563ZM124.533 305.264C124.423 305.264 124.315 305.287 124.214 305.33C123.577 305.733 123.081 306.326 122.795 307.024C124.016 306.573 125.171 305.924 125.193 305.605C125.193 305.539 125.094 305.44 124.918 305.363C124.813 305.306 124.696 305.272 124.577 305.264H124.533Z" fill="#407BFF"/>
<path opacity="0.2" d="M137.984 251.826L124.497 247.976L122.367 259.724L134.852 261.984L137.984 251.826Z" fill="black"/>
<path d="M147.331 258.368L164.481 259.274C168.872 239.049 173.249 216.763 172.383 211.874C170.733 202.502 157.995 192.965 108.583 184.891L85.571 219.453C85.571 219.453 119.209 217.88 149.866 217.88C149.866 217.88 148.156 237.119 147.331 258.368Z" fill="#407BFF"/>
<path opacity="0.1" d="M147.331 258.368L164.481 259.274C168.872 239.049 173.249 216.763 172.383 211.874C170.733 202.502 157.995 192.965 108.583 184.891L85.571 219.453C85.571 219.453 119.209 217.88 149.866 217.88C149.866 217.88 148.156 237.119 147.331 258.368Z" fill="black"/>
<path d="M146.181 255.676L146.692 260.168L165.484 260.809L166.401 256.684L146.181 255.676Z" fill="#407BFF"/>
<path d="M97.6279 125.214C96.6579 125.196 95.6849 125.183 94.7339 125.183C90.5709 125.308 86.4189 125.646 82.2889 126.172C84.0909 128.317 89.7029 131.671 93.4599 131.671C98.7089 131.671 97.5449 127.771 97.6279 125.214Z" fill="#DBB178"/>
<path d="M120.669 254.887L138.198 257.741C145.319 237.808 152.441 216.598 152.319 211.82C152.077 202.305 149.987 197.366 115.557 189.677C115.557 189.677 113.731 187.015 109.518 173.177L75.99 175.377C75.99 175.377 60.678 203.581 72.525 215.626C75.154 218.299 80.302 219.498 85.571 219.454C85.571 219.454 97.671 219.509 127.547 218.112C127.547 218.112 124.034 235.172 120.669 254.887Z" fill="#407BFF"/>
<path d="M119.968 251.826L140.276 255.263L138.351 259.526L119.88 256.501L119.968 251.826Z" fill="#407BFF"/>
<path opacity="0.1" d="M146.181 255.676L146.692 260.168L165.484 260.809L166.401 256.684L146.181 255.676Z" fill="black"/>
<path d="M95.086 122.323C94.704 124.791 94.808 127.309 95.394 129.737L86.197 128.389C85.348 128.265 84.869 127.371 85.214 126.585C86.473 123.716 86.967 117.964 87.276 115.305C87.452 113.71 87.518 112.247 87.529 111.235C87.54 110.223 87.529 109.827 87.529 109.827L91.643 111.708L98.353 114.777C96.802 117.066 95.693 119.625 95.086 122.323Z" fill="#DBB178"/>
<path opacity="0.2" d="M98.364 114.777C96.801 117.063 95.681 119.623 95.064 122.323C91.705 120.993 88.934 118.503 87.254 115.305C87.43 113.71 87.496 112.247 87.507 111.235C88.97 111.378 90.334 111.532 91.632 111.708L98.364 114.777Z" fill="black"/>
<path d="M98.852 108.218C98.584 111.286 100.151 113.773 102.354 113.773C104.556 113.773 106.559 111.286 106.827 108.218C107.095 105.15 105.528 102.663 103.326 102.663C101.123 102.663 99.12 105.15 98.852 108.218Z" fill="#407BFF"/>
<path opacity="0.5" d="M98.456 108.218C98.188 111.286 99.755 113.773 101.958 113.773C104.16 113.773 106.163 111.286 106.431 108.218C106.699 105.15 105.132 102.663 102.93 102.663C100.727 102.663 98.724 105.15 98.456 108.218Z" fill="black"/>
<path d="M83.069 102.816C84.706 110.342 85.28 114.816 89.725 118.25C96.411 123.415 105.272 118.827 105.921 111.043C106.505 104.037 103.731 92.908 95.814 90.776C88.015 88.677 81.432 95.29 83.069 102.816Z" fill="#DBB178"/>
<path d="M81.335 110.669C82.681 112.286 84.533 113.24 86.111 113.509C88.484 113.914 89.018 111.715 87.812 109.592C86.727 107.68 84.184 105.166 82.064 105.727C79.976 106.279 79.796 108.82 81.335 110.669Z" fill="#DBB178"/>
<path d="M94.942 103.562C95.037 104.179 95.443 104.64 95.848 104.592C96.253 104.544 96.504 104.004 96.409 103.387C96.314 102.77 95.908 102.308 95.503 102.357C95.098 102.405 94.847 102.945 94.942 103.562Z" fill="#263238"/>
<path d="M101.948 102.729C102.043 103.346 102.449 103.808 102.854 103.759C103.259 103.711 103.51 103.171 103.415 102.554C103.32 101.937 102.914 101.475 102.509 101.523C102.104 101.572 101.853 102.112 101.948 102.729Z" fill="#263238"/>
<path d="M99.7679 103.301C99.7679 103.301 101.727 106.694 103.543 108.228C102.604 109.378 100.667 109.134 100.667 109.134L99.7679 103.301Z" fill="#C0854B"/>
<path d="M92.427 101.567C92.367 101.567 92.306 101.552 92.249 101.521C92.072 101.423 92.008 101.199 92.106 101.022C93.079 99.27 94.776 99.169 94.848 99.166C95.038 99.138 95.222 99.311 95.232 99.514C95.242 99.716 95.086 99.888 94.884 99.898C94.814 99.903 93.511 100.002 92.747 101.378C92.681 101.499 92.556 101.567 92.427 101.567Z" fill="#263238"/>
<path d="M104.59 99.972C104.473 99.972 104.358 99.916 104.287 99.812C103.348 98.434 101.984 98.41 101.971 98.41C101.768 98.409 101.605 98.244 101.607 98.042C101.608 97.84 101.772 97.677 101.974 97.677H101.976C102.048 97.678 103.742 97.707 104.894 99.399C105.008 99.566 104.965 99.795 104.798 99.908C104.733 99.951 104.661 99.972 104.59 99.972Z" fill="#263238"/>
<path d="M84.537 112.708C84.537 112.708 89.324 107.819 86.981 95.819C86.981 95.819 90.83 99.087 99.768 96.671C99.768 96.671 94.483 97.188 92.061 94.713C92.061 94.713 96.989 97.005 104.956 94.713C104.956 94.713 103.537 86.639 94.922 86.226C94.922 86.226 97.688 83.896 100.356 84.354C100.356 84.354 97.633 82.002 90.703 86.57L87.99 87.654C87.99 87.654 80.274 84.874 75.982 91.412C72.589 96.579 74.302 112.865 84.537 112.708Z" fill="#263238"/>
<path d="M102.069 110.5C102.069 110.5 99.653 109.89 92.834 109.744C93.59 111.81 95.045 113.515 98.537 113.557C102.03 113.599 102.069 110.5 102.069 110.5Z" fill="#263238"/>
<path d="M96.952 111.912C98.638 111.932 99.847 112.342 100.735 112.984C100.231 113.334 99.516 113.566 98.54 113.554C96.855 113.534 95.652 113.134 94.765 112.483C95.269 112.133 95.976 111.9 96.952 111.912Z" fill="#A02724"/>
<path d="M101.76 110.435C101.557 110.868 101.356 111.302 100.67 111.429C99.2469 111.495 95.6199 111.014 94.6469 110.79C94.0239 110.674 93.4949 110.449 93.1279 109.751C98.3789 109.876 100.936 110.277 101.76 110.435Z" fill="white"/>
<path d="M80.835 105.412V97.337C80.835 92.314 84.173 88.071 88.751 86.705L91.45 86.226C86.755 87.627 83.3309 91.979 83.3309 97.13V105.412H80.835Z" fill="#407BFF"/>
<path d="M87.1009 109.318C87.3689 112.386 85.8019 114.873 83.5989 114.873C81.3969 114.873 79.3939 112.386 79.1259 109.318C78.8579 106.25 80.4249 103.764 82.6269 103.764C84.8299 103.763 86.8329 106.25 87.1009 109.318Z" fill="#407BFF"/>
<path opacity="0.5" d="M87.1009 109.318C87.3689 112.386 85.8019 114.873 83.5989 114.873C81.3969 114.873 79.3939 112.386 79.1259 109.318C78.8579 106.25 80.4249 103.764 82.6269 103.764C84.8299 103.763 86.8329 106.25 87.1009 109.318Z" fill="black"/>
<path d="M85.7649 109.318C86.0329 112.386 84.466 114.873 82.264 114.873C80.062 114.873 78.0589 112.386 77.7909 109.318C77.5229 106.25 79.09 103.764 81.292 103.764C83.494 103.763 85.4969 106.25 85.7649 109.318Z" fill="#407BFF"/>
<path opacity="0.3" d="M82.982 110.127L82.798 108.508H83.11C82.707 106.919 81.585 105.731 80.364 105.731C79.143 105.731 78.229 106.919 78.104 108.508H78.306L78.49 110.127H78.245C78.648 111.716 79.77 112.904 80.991 112.904C82.212 112.904 83.126 111.716 83.251 110.127H82.982Z" fill="white"/>
<path d="M68.63 109.978L72.995 101.395L76.524 109.743C76.524 109.743 72.981 114.237 69.333 113.589L68.63 109.978Z" fill="#DBB178"/>
<path d="M79.786 98.229L82.362 105.378L76.524 109.743L72.995 101.396L79.786 98.229Z" fill="#DBB178"/>
<path d="M69.775 119.258L73.977 112.187L73.544 109.31L69.838 107.998L64.567 116.203L69.775 119.258Z" fill="#DBB178"/>
<path d="M72.808 114.862L65.136 131.742C65.136 131.742 68.872 128.395 70.933 127.911C74.214 127.141 84.106 130.13 74.079 141.018C74.079 141.018 54.224 153.433 50.171 148.622C47.022 144.884 60.401 122.149 66.528 112.189L72.808 114.862Z" fill="#407BFF"/>
<path opacity="0.6" d="M72.808 114.862L65.136 131.742C65.136 131.742 68.872 128.395 70.933 127.911C74.214 127.141 84.106 130.13 74.079 141.018C74.079 141.018 54.224 153.433 50.171 148.622C47.022 144.884 60.401 122.149 66.528 112.189L72.808 114.862Z" fill="white"/>
<path opacity="0.2" d="M65.136 131.742L62.964 138.327L69.243 128.665C67.3 129.805 65.136 131.742 65.136 131.742Z" fill="black"/>
<path d="M93.8699 116.772C92.8689 116.772 91.9259 116.731 91.3619 116.608C89.6879 116.242 85.3529 113.872 85.1689 113.772L85.5649 113.048C85.6089 113.073 89.9799 115.461 91.5379 115.802C93.0539 116.134 97.8929 115.797 97.9419 115.793L97.9999 116.616C97.8669 116.626 95.7649 116.772 93.8699 116.772Z" fill="#407BFF"/>
<path d="M94.766 116.939L98.728 116.641C98.728 116.641 98.616 115.403 96.747 115.449C94.878 115.495 94.766 116.939 94.766 116.939Z" fill="#407BFF"/>
<g opacity="0.5">
<path d="M93.8699 116.772C92.8689 116.772 91.9259 116.731 91.3619 116.608C89.6879 116.242 85.3529 113.872 85.1689 113.772L85.5649 113.048C85.6089 113.073 89.9799 115.461 91.5379 115.802C93.0539 116.134 97.8929 115.797 97.9419 115.793L97.9999 116.616C97.8669 116.626 95.7649 116.772 93.8699 116.772Z" fill="black"/>
<path d="M94.766 116.939L98.728 116.641C98.728 116.641 98.616 115.403 96.747 115.449C94.878 115.495 94.766 116.939 94.766 116.939Z" fill="black"/>
</g>
<path d="M254.063 317.54C253.229 317.638 252.484 316.928 252.4 315.954L242.396 200.166C242.203 197.936 240.609 196.254 238.689 196.254H191.45C189.53 196.254 187.936 197.936 187.743 200.166L177.739 315.954C177.655 316.928 176.91 317.638 176.076 317.54C175.241 317.442 174.633 316.573 174.717 315.598L184.721 199.811C185.071 195.762 187.964 192.708 191.45 192.708H238.689C242.175 192.708 245.068 195.761 245.418 199.811L255.422 315.598C255.506 316.573 254.898 317.442 254.063 317.54Z" fill="#407BFF"/>
<g opacity="0.4">
<path d="M254.063 317.54C253.229 317.638 252.484 316.928 252.4 315.954L242.396 200.166C242.203 197.936 240.609 196.254 238.689 196.254H191.45C189.53 196.254 187.936 197.936 187.743 200.166L177.739 315.954C177.655 316.928 176.91 317.638 176.076 317.54C175.241 317.442 174.633 316.573 174.717 315.598L184.721 199.811C185.071 195.762 187.964 192.708 191.45 192.708H238.689C242.175 192.708 245.068 195.761 245.418 199.811L255.422 315.598C255.506 316.573 254.898 317.442 254.063 317.54Z" fill="black"/>
</g>
<path d="M253.4 198.39H124.991C123.87 198.39 122.961 197.481 122.961 196.36V189.781C122.961 188.66 123.87 187.751 124.991 187.751H253.4C254.521 187.751 255.43 188.66 255.43 189.781V196.36C255.43 197.481 254.521 198.39 253.4 198.39Z" fill="#263238"/>
<path opacity="0.2" d="M253.4 198.39H197.296V187.751H253.4C254.521 187.751 255.43 188.66 255.43 189.781V196.36C255.43 197.481 254.521 198.39 253.4 198.39Z" fill="white"/>
<path d="M202.316 317.54C201.482 317.638 200.737 316.928 200.653 315.954L190.649 200.166C190.456 197.936 188.862 196.254 186.942 196.254H139.703C137.783 196.254 136.189 197.936 135.996 200.166L125.992 315.954C125.908 316.928 125.163 317.638 124.329 317.54C123.494 317.442 122.886 316.573 122.97 315.598L132.974 199.811C133.324 195.762 136.217 192.708 139.703 192.708H186.942C190.428 192.708 193.321 195.761 193.671 199.811L203.675 315.598C203.759 316.573 203.15 317.442 202.316 317.54Z" fill="#407BFF"/>
<g opacity="0.4">
<path d="M202.316 317.54C201.482 317.638 200.737 316.928 200.653 315.954L190.649 200.166C190.456 197.936 188.862 196.254 186.942 196.254H139.703C137.783 196.254 136.189 197.936 135.996 200.166L125.992 315.954C125.908 316.928 125.163 317.638 124.329 317.54C123.494 317.442 122.886 316.573 122.97 315.598L132.974 199.811C133.324 195.762 136.217 192.708 139.703 192.708H186.942C190.428 192.708 193.321 195.761 193.671 199.811L203.675 315.598C203.759 316.573 203.15 317.442 202.316 317.54Z" fill="black"/>
</g>
<path d="M200.639 187.731H167.085C166.118 187.731 165.334 186.947 165.334 185.98V182.506H202.39V185.98C202.39 186.947 201.606 187.731 200.639 187.731Z" fill="#263238"/>
<path opacity="0.2" d="M200.639 187.731H167.085C166.118 187.731 165.334 186.947 165.334 185.98V182.506H202.39V185.98C202.39 186.947 201.606 187.731 200.639 187.731Z" fill="white"/>
<path d="M174.422 187.731H140.868C139.901 187.731 139.117 186.947 139.117 185.98V182.506H176.173V185.98C176.173 186.947 175.389 187.731 174.422 187.731Z" fill="#263238"/>
<path opacity="0.6" d="M174.422 187.731H140.868C139.901 187.731 139.117 186.947 139.117 185.98V182.506H176.173V185.98C176.173 186.947 175.389 187.731 174.422 187.731Z" fill="white"/>
<path d="M171.892 184.5H168.454V185.737H171.892V184.5Z" fill="#263238"/>
<path d="M166.379 184.5H162.941V185.737H166.379V184.5Z" fill="#263238"/>
<path d="M204.962 187.748L206.729 187.751C207.747 187.753 208.616 187.015 208.779 186.011L214.779 149.116C214.984 147.856 214.013 146.712 212.736 146.71L183.948 146.658L176.174 187.697L177.941 187.7L204.962 187.748Z" fill="#263238"/>
<path opacity="0.6" d="M204.962 187.748L206.729 187.751C207.747 187.753 208.616 187.015 208.779 186.011L214.779 149.116C214.984 147.856 214.013 146.712 212.736 146.71L183.948 146.658L176.174 187.697L177.941 187.7L204.962 187.748Z" fill="white"/>
<path opacity="0.2" d="M176.668 185.084L176.173 187.696L177.94 187.699L204.962 187.748L206.729 187.751C207.747 187.753 208.616 187.015 208.779 186.011L208.92 185.143L176.668 185.084Z" fill="black"/>
<path d="M176.21 187.731H177.977C178.995 187.731 179.863 186.992 180.024 185.987L185.957 149.081C186.16 147.821 185.186 146.678 183.91 146.678L176.21 187.731Z" fill="#263238"/>
<path opacity="0.3" d="M176.21 187.731H177.977C178.995 187.731 179.863 186.992 180.024 185.987L185.957 149.081C186.16 147.821 185.186 146.678 183.91 146.678L176.21 187.731Z" fill="white"/>
</g>
<defs>
<clipPath id="clip0_205_13">
<rect width="357" height="318" fill="white"/>
</clipPath>
</defs>
</svg>
