<svg width="24" height="25" viewBox="0 0 24 25" fill="none" xmlns="http://www.w3.org/2000/svg">
<path d="M24 14.8498V24.1202H18.8341V15.4151C18.8341 13.2671 18.0807 11.7974 16.2511 11.7974C14.852 11.7974 13.991 12.8149 13.6682 13.7193C13.5605 14.0585 13.4529 14.5107 13.4529 15.0759V24.1202H8.28699C8.28699 24.1202 8.39462 9.4233 8.28699 7.95361H13.4529V10.2147C14.0987 9.08414 15.3901 7.5014 18.0807 7.5014C21.417 7.5014 24 9.87551 24 14.8498ZM2.90583 0.152954C1.18385 0.152954 0 1.39654 0 2.97928C0 4.56202 1.07623 5.8056 2.79821 5.8056C4.6278 5.8056 5.70404 4.56202 5.70404 2.97928C5.81166 1.28348 4.73542 0.152954 2.90583 0.152954ZM0.322869 24.1202H5.48879V7.95361H0.322869V24.1202Z" fill="white"/>
</svg>
